<mxfile host="app.diagrams.net" modified="2022-04-21T16:56:55.900Z" agent="5.0 (Macintosh; Intel Mac OS X 10_15_7) AppleWebKit/605.1.15 (KHTML, like Gecko) Version/15.2 Safari/605.1.15" etag="cxWHUnmcjSqiDLVCsujU" version="17.4.6" type="github">
  <diagram id="cuV30GmWtsBzU31-yGDN" name="Page-1">
    <mxGraphModel dx="1391" dy="782" grid="1" gridSize="10" guides="1" tooltips="1" connect="1" arrows="1" fold="1" page="1" pageScale="1" pageWidth="827" pageHeight="1169" math="0" shadow="0">
      <root>
        <mxCell id="0" />
        <mxCell id="1" parent="0" />
        <mxCell id="upn7SqK1WlgC9lg57BWG-32" style="edgeStyle=orthogonalEdgeStyle;rounded=0;orthogonalLoop=1;jettySize=auto;html=1;exitX=0.5;exitY=1;exitDx=0;exitDy=0;" edge="1" parent="1" source="upn7SqK1WlgC9lg57BWG-1" target="upn7SqK1WlgC9lg57BWG-6">
          <mxGeometry relative="1" as="geometry" />
        </mxCell>
        <mxCell id="upn7SqK1WlgC9lg57BWG-37" style="edgeStyle=orthogonalEdgeStyle;rounded=0;orthogonalLoop=1;jettySize=auto;html=1;exitX=1;exitY=0.5;exitDx=0;exitDy=0;" edge="1" parent="1" source="upn7SqK1WlgC9lg57BWG-1" target="upn7SqK1WlgC9lg57BWG-11">
          <mxGeometry relative="1" as="geometry" />
        </mxCell>
        <mxCell id="upn7SqK1WlgC9lg57BWG-1" value="Clean dataset" style="rounded=1;whiteSpace=wrap;html=1;fillColor=#dae8fc;strokeColor=#6c8ebf;" vertex="1" parent="1">
          <mxGeometry x="360" y="40" width="120" height="40" as="geometry" />
        </mxCell>
        <mxCell id="upn7SqK1WlgC9lg57BWG-20" style="edgeStyle=orthogonalEdgeStyle;rounded=0;orthogonalLoop=1;jettySize=auto;html=1;exitX=0.5;exitY=1;exitDx=0;exitDy=0;entryX=0.5;entryY=0;entryDx=0;entryDy=0;" edge="1" parent="1" source="upn7SqK1WlgC9lg57BWG-2" target="upn7SqK1WlgC9lg57BWG-4">
          <mxGeometry relative="1" as="geometry" />
        </mxCell>
        <mxCell id="upn7SqK1WlgC9lg57BWG-2" value="Model selection" style="rounded=1;whiteSpace=wrap;html=1;fillColor=#f8cecc;strokeColor=#b85450;" vertex="1" parent="1">
          <mxGeometry x="360" y="520" width="120" height="40" as="geometry" />
        </mxCell>
        <mxCell id="upn7SqK1WlgC9lg57BWG-19" style="edgeStyle=orthogonalEdgeStyle;rounded=0;orthogonalLoop=1;jettySize=auto;html=1;exitX=0.5;exitY=1;exitDx=0;exitDy=0;entryX=0.5;entryY=0;entryDx=0;entryDy=0;" edge="1" parent="1" source="upn7SqK1WlgC9lg57BWG-3" target="upn7SqK1WlgC9lg57BWG-2">
          <mxGeometry relative="1" as="geometry" />
        </mxCell>
        <mxCell id="upn7SqK1WlgC9lg57BWG-3" value="Train / test split" style="rounded=1;whiteSpace=wrap;html=1;fillColor=#f8cecc;strokeColor=#b85450;" vertex="1" parent="1">
          <mxGeometry x="360" y="440" width="120" height="40" as="geometry" />
        </mxCell>
        <mxCell id="upn7SqK1WlgC9lg57BWG-21" style="edgeStyle=orthogonalEdgeStyle;rounded=0;orthogonalLoop=1;jettySize=auto;html=1;exitX=0.5;exitY=1;exitDx=0;exitDy=0;entryX=0.5;entryY=0;entryDx=0;entryDy=0;" edge="1" parent="1" source="upn7SqK1WlgC9lg57BWG-4" target="upn7SqK1WlgC9lg57BWG-5">
          <mxGeometry relative="1" as="geometry" />
        </mxCell>
        <mxCell id="upn7SqK1WlgC9lg57BWG-4" value="Hyperparameter tuning" style="rounded=1;whiteSpace=wrap;html=1;fillColor=#f8cecc;strokeColor=#b85450;" vertex="1" parent="1">
          <mxGeometry x="360" y="600" width="120" height="40" as="geometry" />
        </mxCell>
        <mxCell id="upn7SqK1WlgC9lg57BWG-23" style="edgeStyle=orthogonalEdgeStyle;rounded=0;orthogonalLoop=1;jettySize=auto;html=1;exitX=1;exitY=0.5;exitDx=0;exitDy=0;entryX=1;entryY=0.5;entryDx=0;entryDy=0;" edge="1" parent="1" source="upn7SqK1WlgC9lg57BWG-5" target="upn7SqK1WlgC9lg57BWG-4">
          <mxGeometry relative="1" as="geometry">
            <Array as="points">
              <mxPoint x="520" y="700" />
              <mxPoint x="520" y="620" />
            </Array>
          </mxGeometry>
        </mxCell>
        <mxCell id="upn7SqK1WlgC9lg57BWG-26" style="edgeStyle=orthogonalEdgeStyle;rounded=0;orthogonalLoop=1;jettySize=auto;html=1;exitX=0.5;exitY=1;exitDx=0;exitDy=0;entryX=0.5;entryY=0;entryDx=0;entryDy=0;" edge="1" parent="1" source="upn7SqK1WlgC9lg57BWG-5" target="upn7SqK1WlgC9lg57BWG-25">
          <mxGeometry relative="1" as="geometry" />
        </mxCell>
        <mxCell id="upn7SqK1WlgC9lg57BWG-28" style="edgeStyle=orthogonalEdgeStyle;rounded=0;orthogonalLoop=1;jettySize=auto;html=1;exitX=1;exitY=0.5;exitDx=0;exitDy=0;entryX=1;entryY=0.5;entryDx=0;entryDy=0;" edge="1" parent="1" source="upn7SqK1WlgC9lg57BWG-5" target="upn7SqK1WlgC9lg57BWG-7">
          <mxGeometry relative="1" as="geometry">
            <Array as="points">
              <mxPoint x="520" y="700" />
              <mxPoint x="520" y="300" />
            </Array>
          </mxGeometry>
        </mxCell>
        <mxCell id="upn7SqK1WlgC9lg57BWG-29" style="edgeStyle=orthogonalEdgeStyle;rounded=0;orthogonalLoop=1;jettySize=auto;html=1;exitX=1;exitY=0.5;exitDx=0;exitDy=0;entryX=1;entryY=0.5;entryDx=0;entryDy=0;" edge="1" parent="1" source="upn7SqK1WlgC9lg57BWG-5" target="upn7SqK1WlgC9lg57BWG-27">
          <mxGeometry relative="1" as="geometry">
            <Array as="points">
              <mxPoint x="520" y="700" />
              <mxPoint x="520" y="380" />
            </Array>
          </mxGeometry>
        </mxCell>
        <mxCell id="upn7SqK1WlgC9lg57BWG-5" value="Results assessment" style="rounded=1;whiteSpace=wrap;html=1;fillColor=#f8cecc;strokeColor=#b85450;" vertex="1" parent="1">
          <mxGeometry x="360" y="680" width="120" height="40" as="geometry" />
        </mxCell>
        <mxCell id="upn7SqK1WlgC9lg57BWG-17" style="edgeStyle=orthogonalEdgeStyle;rounded=0;orthogonalLoop=1;jettySize=auto;html=1;exitX=0.5;exitY=1;exitDx=0;exitDy=0;entryX=0.5;entryY=0;entryDx=0;entryDy=0;" edge="1" parent="1" source="upn7SqK1WlgC9lg57BWG-6" target="upn7SqK1WlgC9lg57BWG-7">
          <mxGeometry relative="1" as="geometry" />
        </mxCell>
        <mxCell id="upn7SqK1WlgC9lg57BWG-6" value="Data consolidation" style="rounded=1;whiteSpace=wrap;html=1;fillColor=#dae8fc;strokeColor=#6c8ebf;" vertex="1" parent="1">
          <mxGeometry x="360" y="200" width="120" height="40" as="geometry" />
        </mxCell>
        <mxCell id="upn7SqK1WlgC9lg57BWG-30" style="edgeStyle=orthogonalEdgeStyle;rounded=0;orthogonalLoop=1;jettySize=auto;html=1;exitX=0.5;exitY=1;exitDx=0;exitDy=0;entryX=0.5;entryY=0;entryDx=0;entryDy=0;" edge="1" parent="1" source="upn7SqK1WlgC9lg57BWG-7" target="upn7SqK1WlgC9lg57BWG-27">
          <mxGeometry relative="1" as="geometry" />
        </mxCell>
        <mxCell id="upn7SqK1WlgC9lg57BWG-7" value="Feature selection" style="rounded=1;whiteSpace=wrap;html=1;fillColor=#d5e8d4;strokeColor=#82b366;" vertex="1" parent="1">
          <mxGeometry x="360" y="280" width="120" height="40" as="geometry" />
        </mxCell>
        <mxCell id="upn7SqK1WlgC9lg57BWG-34" style="edgeStyle=orthogonalEdgeStyle;rounded=0;orthogonalLoop=1;jettySize=auto;html=1;exitX=0.5;exitY=1;exitDx=0;exitDy=0;entryX=1;entryY=0.5;entryDx=0;entryDy=0;" edge="1" parent="1" source="upn7SqK1WlgC9lg57BWG-11" target="upn7SqK1WlgC9lg57BWG-6">
          <mxGeometry relative="1" as="geometry" />
        </mxCell>
        <mxCell id="upn7SqK1WlgC9lg57BWG-11" value="Natural language processing" style="rounded=1;whiteSpace=wrap;html=1;fillColor=#f8cecc;strokeColor=#b85450;" vertex="1" parent="1">
          <mxGeometry x="520" y="120" width="120" height="40" as="geometry" />
        </mxCell>
        <mxCell id="upn7SqK1WlgC9lg57BWG-25" value="Save model" style="rounded=1;whiteSpace=wrap;html=1;" vertex="1" parent="1">
          <mxGeometry x="360" y="760" width="120" height="40" as="geometry" />
        </mxCell>
        <mxCell id="upn7SqK1WlgC9lg57BWG-31" style="edgeStyle=orthogonalEdgeStyle;rounded=0;orthogonalLoop=1;jettySize=auto;html=1;exitX=0.5;exitY=1;exitDx=0;exitDy=0;entryX=0.5;entryY=0;entryDx=0;entryDy=0;" edge="1" parent="1" source="upn7SqK1WlgC9lg57BWG-27" target="upn7SqK1WlgC9lg57BWG-3">
          <mxGeometry relative="1" as="geometry" />
        </mxCell>
        <mxCell id="upn7SqK1WlgC9lg57BWG-27" value="Feature encoding" style="rounded=1;whiteSpace=wrap;html=1;fillColor=#d5e8d4;strokeColor=#82b366;" vertex="1" parent="1">
          <mxGeometry x="360" y="360" width="120" height="40" as="geometry" />
        </mxCell>
        <mxCell id="upn7SqK1WlgC9lg57BWG-35" value="&lt;i&gt;Natural language data&lt;/i&gt;" style="text;html=1;strokeColor=none;fillColor=none;align=center;verticalAlign=middle;whiteSpace=wrap;rounded=0;" vertex="1" parent="1">
          <mxGeometry x="490" y="70" width="80" height="30" as="geometry" />
        </mxCell>
        <mxCell id="upn7SqK1WlgC9lg57BWG-38" value="&lt;i&gt;Categorical and quantitative data&lt;/i&gt;" style="text;html=1;strokeColor=none;fillColor=none;align=center;verticalAlign=middle;whiteSpace=wrap;rounded=0;" vertex="1" parent="1">
          <mxGeometry x="314" y="125" width="100" height="30" as="geometry" />
        </mxCell>
        <mxCell id="upn7SqK1WlgC9lg57BWG-39" value="&lt;i&gt;Not OK&lt;/i&gt;" style="text;html=1;strokeColor=none;fillColor=none;align=center;verticalAlign=middle;whiteSpace=wrap;rounded=0;rotation=0;" vertex="1" parent="1">
          <mxGeometry x="520" y="670" width="60" height="30" as="geometry" />
        </mxCell>
        <mxCell id="upn7SqK1WlgC9lg57BWG-40" value="&lt;i&gt;OK&lt;/i&gt;" style="text;html=1;strokeColor=none;fillColor=none;align=center;verticalAlign=middle;whiteSpace=wrap;rounded=0;rotation=0;" vertex="1" parent="1">
          <mxGeometry x="420" y="720" width="60" height="30" as="geometry" />
        </mxCell>
      </root>
    </mxGraphModel>
  </diagram>
</mxfile>
